<?xml version="1.0" encoding="utf-8"?>
<!-- Generator: Adobe Illustrator 21.1.0, SVG Export Plug-In . SVG Version: 6.00 Build 0)  -->
<svg version="1.1" id="Layer_1" xmlns="http://www.w3.org/2000/svg" xmlns:xlink="http://www.w3.org/1999/xlink" x="0px" y="0px"
	 viewBox="0 0 154.5 47.1" style="enable-background:new 0 0 154.5 47.1;" xml:space="preserve">
<style type="text/css">
	.st0{fill:#435363;}
	.st1{fill:#005A8B;}
</style>
<g>
	<g>
		<path class="st0" d="M23.7,25.7c0,4-1,7.1-3,9.3c-2,2.3-4.8,3.4-8.3,3.4c-3.6,0-6.4-1.1-8.4-3.3c-2-2.2-3-5.4-3-9.4
			c0-4,1-7.1,3-9.4c2-2.2,4.8-3.3,8.5-3.3c3.6,0,6.3,1.1,8.3,3.4C22.7,18.6,23.7,21.7,23.7,25.7z M4,25.7c0,3.3,0.7,5.9,2.1,7.6
			c1.4,1.7,3.5,2.6,6.2,2.6c2.7,0,4.8-0.9,6.2-2.6c1.4-1.7,2.1-4.3,2.1-7.6c0-3.3-0.7-5.8-2.1-7.6c-1.4-1.7-3.5-2.6-6.2-2.6
			c-2.7,0-4.8,0.9-6.2,2.6C4.7,19.9,4,22.4,4,25.7z"/>
		<path class="st0" d="M36.5,38.4c-1.2,0-2.3-0.2-3.3-0.7c-1-0.4-1.8-1.1-2.5-2.1h-0.2c0.1,1.1,0.2,2.1,0.2,3.1v7.6h-2.8V19.5h2.3
			l0.4,2.5h0.1c0.7-1,1.6-1.7,2.5-2.2c1-0.5,2.1-0.7,3.3-0.7c2.5,0,4.4,0.8,5.7,2.5c1.3,1.7,2,4,2,7.1c0,3-0.7,5.4-2,7.1
			C40.8,37.6,38.9,38.4,36.5,38.4z M36.1,21.6c-1.9,0-3.3,0.5-4.1,1.6c-0.8,1-1.3,2.7-1.3,5v0.6c0,2.6,0.4,4.5,1.3,5.6
			c0.9,1.1,2.3,1.7,4.2,1.7c1.6,0,2.9-0.6,3.8-1.9c0.9-1.3,1.4-3.1,1.4-5.4c0-2.3-0.5-4.1-1.4-5.3C39,22.2,37.7,21.6,36.1,21.6z"/>
		<path class="st0" d="M60.1,33c0,1.7-0.6,3.1-1.9,4c-1.3,0.9-3.1,1.4-5.4,1.4c-2.5,0-4.4-0.4-5.7-1.2v-2.6c0.9,0.5,1.8,0.8,2.9,1.1
			c1,0.3,2,0.4,3,0.4c1.5,0,2.6-0.2,3.4-0.7c0.8-0.5,1.2-1.2,1.2-2.1c0-0.7-0.3-1.3-0.9-1.9c-0.6-0.5-1.8-1.1-3.7-1.8
			c-1.7-0.6-3-1.2-3.7-1.7c-0.7-0.5-1.3-1-1.6-1.6c-0.4-0.6-0.5-1.3-0.5-2.2c0-1.5,0.6-2.7,1.8-3.6c1.2-0.9,2.9-1.3,5.1-1.3
			c2,0,3.9,0.4,5.8,1.2l-1,2.3c-1.9-0.8-3.5-1.1-5.1-1.1c-1.3,0-2.3,0.2-3,0.6c-0.7,0.4-1,1-1,1.7c0,0.5,0.1,0.9,0.4,1.3
			c0.3,0.3,0.7,0.7,1.2,1c0.6,0.3,1.6,0.8,3.2,1.4c2.2,0.8,3.7,1.6,4.5,2.4C59.7,30.8,60.1,31.8,60.1,33z"/>
	</g>
	<g>
		<path class="st1" d="M68.1,28.2v9.9h-4V13.4h7c3.2,0,5.6,0.6,7.1,1.8c1.5,1.2,2.3,3,2.3,5.4c0,3.1-1.6,5.3-4.8,6.6l7,10.9H78
			l-5.9-9.9H68.1z M68.1,24.9h2.8c1.9,0,3.2-0.3,4.1-1c0.8-0.7,1.3-1.7,1.3-3.1c0-1.4-0.5-2.4-1.4-3c-0.9-0.6-2.3-0.9-4.1-0.9h-2.7
			V24.9z"/>
		<path class="st1" d="M96.5,38.1l-0.8-2.6h-0.1c-0.9,1.1-1.8,1.9-2.7,2.3c-0.9,0.4-2.1,0.6-3.5,0.6c-1.8,0-3.3-0.5-4.3-1.5
			c-1-1-1.5-2.4-1.5-4.2c0-1.9,0.7-3.4,2.1-4.4c1.4-1,3.6-1.5,6.5-1.6l3.2-0.1v-1c0-1.2-0.3-2.1-0.8-2.7c-0.6-0.6-1.4-0.9-2.6-0.9
			c-1,0-1.9,0.1-2.8,0.4c-0.9,0.3-1.7,0.6-2.5,1l-1.3-2.8c1-0.5,2.1-0.9,3.3-1.2c1.2-0.3,2.3-0.4,3.4-0.4c2.4,0,4.2,0.5,5.4,1.6
			c1.2,1,1.8,2.7,1.8,4.9v12.6H96.5z M90.6,35.4c1.4,0,2.6-0.4,3.5-1.2c0.9-0.8,1.3-1.9,1.3-3.4v-1.6L93,29.3
			c-1.9,0.1-3.2,0.4-4.1,0.9c-0.9,0.6-1.3,1.4-1.3,2.6c0,0.8,0.2,1.5,0.7,1.9C88.8,35.1,89.6,35.4,90.6,35.4z"/>
		<path class="st1" d="M119.7,38.1h-4V26.5c0-1.4-0.3-2.5-0.8-3.2c-0.5-0.7-1.4-1.1-2.5-1.1c-1.5,0-2.7,0.5-3.4,1.5
			c-0.7,1-1.1,2.7-1.1,5v9.3h-4V19.4h3.1l0.6,2.5h0.2c0.5-0.9,1.3-1.6,2.3-2.1c1-0.5,2.1-0.7,3.3-0.7c2.9,0,4.8,1,5.7,2.9h0.3
			c0.6-0.9,1.3-1.6,2.3-2.2c1-0.5,2.2-0.8,3.4-0.8c2.2,0,3.9,0.6,4.9,1.7c1,1.1,1.5,2.8,1.5,5.2v12.2h-4V26.5c0-1.4-0.3-2.5-0.8-3.2
			c-0.5-0.7-1.4-1.1-2.5-1.1c-1.5,0-2.7,0.5-3.4,1.4c-0.7,1-1.1,2.4-1.1,4.4V38.1z"/>
		<path class="st1" d="M145.6,38.4c-2.4,0-4.2-0.9-5.5-2.6h-0.2c0.2,1.6,0.2,2.5,0.2,2.9v7.7h-4v-27h3.2c0.1,0.3,0.3,1.2,0.6,2.5
			h0.2c1.2-1.9,3.1-2.8,5.6-2.8c2.3,0,4.2,0.8,5.5,2.5c1.3,1.7,2,4.1,2,7.1c0,3.1-0.7,5.4-2,7.2C149.8,37.6,147.9,38.4,145.6,38.4z
			 M144.6,22.3c-1.6,0-2.7,0.5-3.5,1.4c-0.7,0.9-1.1,2.4-1.1,4.4v0.6c0,2.3,0.4,3.9,1.1,4.9c0.7,1,1.9,1.5,3.5,1.5
			c1.4,0,2.4-0.6,3.2-1.7c0.7-1.1,1.1-2.7,1.1-4.8c0-2.1-0.4-3.7-1.1-4.8C147.2,22.8,146.1,22.3,144.6,22.3z"/>
		<polygon class="st1" points="85.3,14.4 152.6,14.4 152.6,0.7 		"/>
	</g>
</g>
</svg>
